<svg xmlns="http://www.w3.org/2000/svg" width="420" height="220" viewBox="0 0 420 220" role="img" aria-label="Карта доставки">
  <defs>
    <linearGradient id="water" x1="0" y1="0" x2="1" y2="1">
      <stop offset="0%" stop-color="#d3e9ff" />
      <stop offset="100%" stop-color="#b4d5ff" />
    </linearGradient>
    <linearGradient id="park" x1="0" y1="0" x2="1" y2="1">
      <stop offset="0%" stop-color="#d8f2dd" />
      <stop offset="100%" stop-color="#bce8c8" />
    </linearGradient>
  </defs>
  <rect width="420" height="220" fill="#f8e9d4" rx="16" />
  <rect x="12" y="12" width="396" height="196" rx="14" fill="#f6e2c6" stroke="#e2c9a5" />
  <path d="M40 120 C120 110 160 80 220 86 C270 92 320 130 380 126 L380 170 C320 172 270 190 220 186 C150 180 100 150 40 152 Z" fill="url(#water)" opacity="0.9" />
  <path d="M70 70 C110 60 140 58 180 64 C200 68 220 68 250 62 C280 56 310 58 350 68 L350 92 C320 104 290 118 260 118 C210 118 170 104 130 110 C110 114 90 124 70 134 Z" fill="url(#park)" opacity="0.9" />
  <path d="M60 180 C140 170 190 156 250 158 C300 160 340 178 370 184" stroke="#d9b88f" stroke-width="12" stroke-linecap="round" fill="none" opacity="0.8" />
  <path d="M70 96 C120 88 150 92 180 108 C210 124 230 150 270 156 C300 162 340 156 360 148" stroke="#cda875" stroke-width="10" stroke-linecap="round" fill="none" opacity="0.8" />
  <circle cx="214" cy="112" r="14" fill="#e57e22" stroke="#fff" stroke-width="4" />
  <path d="M214 102 L214 122" stroke="#fff" stroke-width="4" stroke-linecap="round" />
  <circle cx="214" cy="128" r="3" fill="#fff" />
  <circle cx="122" cy="146" r="8" fill="#2fae63" />
  <circle cx="310" cy="162" r="8" fill="#2fae63" />
</svg>
