<svg xmlns="http://www.w3.org/2000/svg" width="480" height="260" viewBox="0 0 480 260" role="img" aria-label="Пицца">
  <defs>
    <linearGradient id="plate" x1="0" y1="0" x2="1" y2="1">
      <stop offset="0%" stop-color="#f7e4c9" />
      <stop offset="100%" stop-color="#f2d7af" />
    </linearGradient>
    <linearGradient id="crust" x1="0" y1="0" x2="1" y2="1">
      <stop offset="0%" stop-color="#f6c58c" />
      <stop offset="100%" stop-color="#e59b4c" />
    </linearGradient>
    <linearGradient id="sauce" x1="0" y1="0" x2="1" y2="1">
      <stop offset="0%" stop-color="#f59b4d" />
      <stop offset="100%" stop-color="#e17726" />
    </linearGradient>
  </defs>
  <rect width="480" height="260" rx="24" fill="#fdf1dc" />
  <ellipse cx="240" cy="136" rx="210" ry="94" fill="url(#plate)" />
  <ellipse cx="240" cy="130" rx="150" ry="82" fill="#e3b576" opacity="0.35" />
  <g transform="translate(70 36)">
    <circle cx="170" cy="120" r="104" fill="url(#crust)" />
    <circle cx="170" cy="120" r="90" fill="url(#sauce)" />
    <circle cx="170" cy="120" r="84" fill="#f8e4c0" />
    <g fill="#e56d34" opacity="0.85">
      <circle cx="110" cy="96" r="26" />
      <circle cx="204" cy="86" r="24" />
      <circle cx="162" cy="154" r="22" />
      <circle cx="228" cy="142" r="20" />
      <circle cx="136" cy="142" r="18" />
      <circle cx="188" cy="110" r="18" />
    </g>
    <g fill="#c0392b" opacity="0.9">
      <circle cx="114" cy="100" r="12" />
      <circle cx="206" cy="86" r="11" />
      <circle cx="164" cy="158" r="10" />
      <circle cx="226" cy="144" r="9" />
      <circle cx="132" cy="144" r="10" />
    </g>
    <g fill="#f4d35e" opacity="0.9">
      <circle cx="166" cy="124" r="10" />
      <circle cx="132" cy="112" r="8" />
      <circle cx="212" cy="132" r="8" />
      <circle cx="194" cy="102" r="7" />
      <circle cx="146" cy="158" r="7" />
      <circle cx="122" cy="136" r="6" />
      <circle cx="224" cy="114" r="6" />
    </g>
    <g fill="#83b55c" opacity="0.9">
      <circle cx="150" cy="96" r="6" />
      <circle cx="202" cy="94" r="5" />
      <circle cx="188" cy="150" r="5" />
      <circle cx="140" cy="134" r="5" />
      <circle cx="218" cy="134" r="5" />
      <circle cx="176" cy="110" r="4" />
      <circle cx="156" cy="146" r="4" />
    </g>
  </g>
</svg>
